<?xml version="1.0" encoding="UTF-8" standalone="no"?>
<!-- Created with Inkscape (http://www.inkscape.org/) -->

<svg
   xmlns:dc="http://purl.org/dc/elements/1.1/"
   xmlns:cc="http://creativecommons.org/ns#"
   xmlns:rdf="http://www.w3.org/1999/02/22-rdf-syntax-ns#"
   xmlns:svg="http://www.w3.org/2000/svg"
   xmlns="http://www.w3.org/2000/svg"
   xmlns:sodipodi="http://sodipodi.sourceforge.net/DTD/sodipodi-0.dtd"
   xmlns:inkscape="http://www.inkscape.org/namespaces/inkscape"
   width="35.903561mm"
   height="20.184242mm"
   viewBox="0 0 35.903561 20.184242"
   version="1.1"
   id="svg8"
   sodipodi:docname="logo_favl.svg"
   inkscape:version="0.92.3 (2405546, 2018-03-11)">
  <defs
     id="defs2">
    <clipPath
       id="clipPath3729"
       clipPathUnits="userSpaceOnUse">
      <path
         inkscape:connector-curvature="0"
         id="path3727"
         d="M 0,595.28 H 841.89 V 0 H 0 Z" />
    </clipPath>
  </defs>
  <sodipodi:namedview
     id="base"
     pagecolor="#ffffff"
     bordercolor="#666666"
     borderopacity="1.0"
     inkscape:pageopacity="0.0"
     inkscape:pageshadow="2"
     inkscape:zoom="1.7463426"
     inkscape:cx="233.87284"
     inkscape:cy="-48.011329"
     inkscape:document-units="mm"
     inkscape:current-layer="layer1"
     showgrid="false"
     inkscape:window-width="1920"
     inkscape:window-height="1017"
     inkscape:window-x="-8"
     inkscape:window-y="-8"
     inkscape:window-maximized="1" />
  <metadata
     id="metadata5">
    <rdf:RDF>
      <cc:Work
         rdf:about="">
        <dc:format>image/svg+xml</dc:format>
        <dc:type
           rdf:resource="http://purl.org/dc/dcmitype/StillImage" />
      </cc:Work>
    </rdf:RDF>
  </metadata>
  <g
     inkscape:label="Capa 1"
     inkscape:groupmode="layer"
     id="layer1"
     transform="translate(-12.076397,-183.49638)">
    <g
       transform="matrix(0.06754689,0,0,-0.06754689,1.860372,213.62371)"
       inkscape:label="Logo-FAVL"
       id="g3721">
      <g
         id="g3723">
        <g
           clip-path="url(#clipPath3729)"
           id="g3725">
          <g
             transform="translate(504.6035,356.44)"
             id="g3731">
            <path
               inkscape:connector-curvature="0"
               id="path3733"
               style="fill:#0994dc;fill-opacity:1;fill-rule:nonzero;stroke:none"
               d="m 0,0 -3.708,-10.521 c -0.438,-1.247 -1.889,-2.265 -3.324,-2.265 H -33.54 c -6.137,0 -9.005,-1.81 -11.009,-7.692 l -3.532,-10.184 26.87,0.052 c 1.307,0 1.979,-0.792 1.835,-1.81 -0.031,-0.226 -0.048,-0.338 -0.063,-0.452 l -3.611,-10.747 c -0.436,-1.244 -2.017,-2.265 -3.453,-2.265 l -26.87,-0.051 -11.329,-33.034 c -0.438,-1.244 -2.018,-2.262 -3.454,-2.262 H -85.13 c -1.308,0 -1.979,0.792 -1.835,1.81 0.032,0.225 0.048,0.339 0.064,0.452 l 20.154,58.491 c 7.331,21.381 22.109,24.324 40.131,24.324 14.101,0 20.354,-1.019 24.714,-1.585 C -0.366,2.036 0.355,1.583 0.21,0.566 0.193,0.452 0.03,0.226 0,0" />
          </g>
          <g
             transform="translate(490.709,277.2442)"
             id="g3735">
            <path
               inkscape:connector-curvature="0"
               id="path3737"
               style="fill:#0994dc;fill-opacity:1;fill-rule:nonzero;stroke:none"
               d="m 0,0 c -0.683,-1.129 -1.984,-2.035 -3.29,-2.035 h -18.673 c -1.176,0 -1.748,0.565 -1.637,1.357 0.048,0.338 0.228,0.678 0.406,1.019 l 43.606,70.144 c 6.757,10.86 17.055,12.557 26.065,12.557 9.009,0 17.908,-1.697 17.156,-12.557 L 58.939,0.341 58.923,0.227 C 58.731,-1.129 57.43,-2.035 55.993,-2.035 H 38.104 c -1.308,0 -2.094,0.906 -1.932,2.035 l 6.224,65.28 c 0.162,1.13 0.108,1.696 -1.065,1.696 -1.176,0 -1.78,-0.566 -2.46,-1.696 z" />
          </g>
          <g
             transform="translate(645.6318,356.8916)"
             id="g3739">
            <path
               inkscape:connector-curvature="0"
               id="path3741"
               style="fill:#0994dc;fill-opacity:1;fill-rule:nonzero;stroke:none"
               d="m 0,0 -43.604,-70.145 c -6.761,-10.86 -16.923,-12.557 -25.933,-12.557 -9.009,0 -18.042,1.697 -17.288,12.557 L -82.134,0 l 0.017,0.114 c 0.191,1.356 1.496,2.261 3.063,2.261 h 17.498 c 1.305,0 2.089,-0.905 1.93,-2.035 l -6.225,-65.28 c -0.177,-1.244 0.024,-1.696 1.197,-1.696 1.175,0 1.761,0.452 2.46,1.696 l 38.871,65.28 c 0.679,1.13 1.853,2.035 3.16,2.035 H -1.229 C -0.056,2.375 0.519,1.81 0.408,1.018 0.359,0.678 0.18,0.34 0,0" />
          </g>
          <g
             transform="translate(682.7109,288.5567)"
             id="g3743">
            <path
               inkscape:connector-curvature="0"
               id="path3745"
               style="fill:#0994dc;fill-opacity:1;fill-rule:nonzero;stroke:none"
               d="m 0,0 -3.71,-10.521 c -0.468,-1.469 -1.332,-2.035 -3.338,-2.375 -4.553,-0.792 -14.962,-1.471 -21.883,-1.471 -14.366,0 -26.928,4.413 -24.914,18.668 0.241,1.697 0.773,3.621 1.453,5.657 l 20.151,58.491 c 0.438,1.244 2.019,2.261 3.456,2.261 h 17.106 c 1.305,0 1.976,-0.791 1.832,-1.809 -0.032,-0.226 -0.048,-0.34 -0.064,-0.452 L -30.064,9.958 c -0.42,-1.133 -0.695,-2.15 -0.805,-2.942 -0.512,-3.621 1.547,-4.75 6.508,-4.75 h 22.459 c 1.304,0 2.109,-0.792 1.95,-1.924 C 0.03,0.228 0.016,0.115 0,0" />
          </g>
          <g
             transform="translate(462.6553,251.1182)"
             id="g3747">
            <path
               inkscape:connector-curvature="0"
               id="path3749"
               style="fill:#0994dc;fill-opacity:1;fill-rule:nonzero;stroke:none"
               d="m 0,0 -0.925,-5.357 h 11.831 c 0.425,0 0.733,-0.155 0.617,-0.772 l -0.231,-1.464 c -0.077,-0.425 -0.23,-0.77 -0.925,-0.77 H -1.465 l -2.196,-12.603 c -0.077,-0.425 -0.27,-0.771 -0.887,-0.771 h -1.966 c -0.578,0 -0.732,0.346 -0.655,0.771 L -3.508,0 c 1.003,5.742 4.086,7.168 9.482,7.168 4.124,0 5.935,-0.077 7.283,-0.308 0.502,-0.078 0.579,-0.231 0.502,-0.578 L 13.412,4.471 C 13.373,4.201 13.257,4.009 12.911,4.009 H 5.472 C 1.388,4.009 0.501,2.929 0,0" />
          </g>
          <g
             transform="translate(483.8926,251.1182)"
             id="g3751">
            <path
               inkscape:connector-curvature="0"
               id="path3753"
               style="fill:#0994dc;fill-opacity:1;fill-rule:nonzero;stroke:none"
               d="m 0,0 -0.925,-5.357 h 11.832 c 0.425,0 0.695,-0.194 0.617,-0.772 l -0.231,-1.464 c -0.077,-0.425 -0.27,-0.77 -0.925,-0.77 H -1.464 l -1.118,-6.476 c -0.115,-0.616 -0.193,-1.117 -0.193,-1.58 0,-1.734 0.963,-2.427 4.201,-2.427 h 7.323 c 0.386,0 0.539,-0.078 0.463,-0.464 l -0.347,-1.888 c -0.039,-0.231 -0.078,-0.462 -0.463,-0.539 -1.118,-0.117 -5.28,-0.27 -7.554,-0.27 -4.394,0 -7.091,1.812 -7.091,5.55 0,0.501 0.039,1.04 0.153,1.618 L -3.507,0 c 1.003,5.665 4.085,7.168 9.481,7.168 4.355,0 6.436,-0.153 7.476,-0.347 0.271,-0.039 0.386,-0.153 0.309,-0.539 L 13.413,4.471 C 13.374,4.085 13.181,4.009 12.911,4.009 H 5.473 C 1.388,4.009 0.502,2.929 0,0" />
          </g>
          <g
             transform="translate(510.1797,255.2803)"
             id="g3755">
            <path
               inkscape:connector-curvature="0"
               id="path3757"
               style="fill:#0994dc;fill-opacity:1;fill-rule:nonzero;stroke:none"
               d="m 0,0 c -1.812,0 -3.006,-0.039 -4.278,-0.116 l -4.046,-22.97 c 1.233,-0.077 2.467,-0.077 4.278,-0.077 4.509,0 8.633,2.312 9.75,8.98 l 0.886,5.204 c 0.193,1.04 0.27,1.964 0.27,2.774 C 6.86,-1.426 3.931,0 0,0 m 10.098,-8.979 -0.886,-5.204 c -1.466,-8.479 -6.399,-11.986 -13.799,-11.986 -2.929,0 -5.818,0.192 -6.937,0.386 -0.616,0.115 -0.732,0.423 -0.655,0.964 l 4.663,26.477 c 0.117,0.539 0.463,0.886 0.964,0.962 1.156,0.193 4.162,0.386 7.091,0.386 5.898,0 9.829,-2.929 9.829,-9.019 0,-0.924 -0.078,-1.888 -0.27,-2.966" />
          </g>
          <g
             transform="translate(529.8379,251.1182)"
             id="g3759">
            <path
               inkscape:connector-curvature="0"
               id="path3761"
               style="fill:#0994dc;fill-opacity:1;fill-rule:nonzero;stroke:none"
               d="m 0,0 -0.925,-5.357 h 11.832 c 0.425,0 0.695,-0.194 0.617,-0.772 l -0.231,-1.464 c -0.077,-0.425 -0.27,-0.77 -0.925,-0.77 H -1.464 l -1.118,-6.476 c -0.115,-0.616 -0.193,-1.117 -0.193,-1.58 0,-1.734 0.963,-2.427 4.201,-2.427 h 7.323 c 0.386,0 0.539,-0.078 0.463,-0.464 l -0.347,-1.888 c -0.039,-0.231 -0.078,-0.462 -0.463,-0.539 -1.118,-0.117 -5.28,-0.27 -7.554,-0.27 -4.394,0 -7.091,1.812 -7.091,5.55 0,0.501 0.039,1.04 0.153,1.618 L -3.507,0 c 1.003,5.665 4.085,7.168 9.481,7.168 4.355,0 6.436,-0.153 7.476,-0.347 0.27,-0.039 0.386,-0.153 0.309,-0.539 L 13.413,4.471 C 13.374,4.085 13.181,4.009 12.911,4.009 H 5.473 C 1.387,4.009 0.502,2.929 0,0" />
          </g>
          <g
             transform="translate(556.0088,255.127)"
             id="g3763">
            <path
               inkscape:connector-curvature="0"
               id="path3765"
               style="fill:#0994dc;fill-opacity:1;fill-rule:nonzero;stroke:none"
               d="m 0,0 c -1.232,0 -3.353,0 -4.277,-0.116 l -1.85,-10.561 c 0.964,-0.038 2.504,-0.077 4.239,-0.077 4.355,0 7.669,1.35 8.247,5.357 l 0.039,0.271 C 6.476,-4.664 6.514,-4.24 6.514,-3.855 6.514,-0.811 4.433,0 0,0 M 9.867,-5.126 9.829,-5.397 C 9.173,-9.906 6.322,-12.449 2.391,-13.182 L 7.4,-25.014 c 0.039,-0.077 0.078,-0.193 0.078,-0.346 0,-0.232 -0.155,-0.386 -0.424,-0.386 H 4.395 c -0.463,0 -0.579,0 -0.772,0.501 l -4.855,11.485 h -1.195 c -1.272,0 -3.277,0.077 -4.24,0.115 l -1.966,-11.33 c -0.077,-0.385 -0.269,-0.771 -0.847,-0.771 h -2.082 c -0.385,0 -0.617,0.231 -0.539,0.771 L -7.36,2.003 c 0.114,0.54 0.385,0.77 1.078,0.849 1.696,0.192 4.972,0.307 6.822,0.307 5.55,0 9.442,-2.081 9.442,-6.859 0,-0.463 -0.039,-0.926 -0.115,-1.426" />
          </g>
          <g
             transform="translate(582.2959,254.5489)"
             id="g3767">
            <path
               inkscape:connector-curvature="0"
               id="path3769"
               style="fill:#0994dc;fill-opacity:1;fill-rule:nonzero;stroke:none"
               d="M 0,0 C -0.039,0.423 -0.231,0.692 -0.617,0.692 -1.04,0.692 -1.31,0.423 -1.503,0 L -7.246,-12.681 H 1.272 Z M 5.28,-25.168 H 2.969 c -0.348,0 -0.502,0.27 -0.541,0.578 l -0.962,8.864 h -9.983 l -4.008,-8.864 c -0.117,-0.308 -0.347,-0.578 -0.809,-0.578 h -2.353 c -0.345,0 -0.539,0.192 -0.539,0.501 0,0.115 0,0.231 0.078,0.386 l 11.562,25.09 c 1.079,2.35 2.735,2.928 4.433,2.928 1.58,0 3.122,-0.539 3.391,-2.889 l 2.698,-25.129 v -0.155 c 0,-0.423 -0.194,-0.732 -0.656,-0.732" />
          </g>
          <g
             transform="translate(612.3223,257.67)"
             id="g3771">
            <path
               inkscape:connector-curvature="0"
               id="path3773"
               style="fill:#0994dc;fill-opacity:1;fill-rule:nonzero;stroke:none"
               d="M 0,0 C 0.308,-0.039 0.616,-0.116 0.539,-0.501 L 0.192,-2.467 C 0.153,-2.814 0,-2.929 -0.462,-2.891 c -1.35,0.116 -4.164,0.348 -6.398,0.348 -3.778,0 -7.092,-2.236 -8.248,-8.749 l -0.964,-5.358 c -0.193,-1.079 -0.27,-2.004 -0.27,-2.852 0,-4.316 2.275,-5.895 5.435,-5.895 2.197,0 5.048,0.23 6.436,0.306 0.617,0.039 0.732,-0.115 0.656,-0.615 l -0.27,-1.581 c -0.077,-0.463 -0.232,-0.655 -0.925,-0.771 -1.658,-0.308 -3.2,-0.501 -6.475,-0.501 -3.893,0 -8.364,2.274 -8.364,8.827 0,0.924 0.078,1.964 0.27,3.082 l 0.964,5.358 c 1.772,9.789 7.36,11.908 12.256,11.908 C -3.932,0.616 -1.658,0.27 0,0" />
          </g>
          <g
             transform="translate(620.6494,258.0166)"
             id="g3775">
            <path
               inkscape:connector-curvature="0"
               id="path3777"
               style="fill:#0994dc;fill-opacity:1;fill-rule:nonzero;stroke:none"
               d="M 0,0 C 0.501,0 0.654,-0.23 0.578,-0.732 L -4.2,-27.864 c -0.078,-0.54 -0.309,-0.772 -0.849,-0.772 h -2.12 c -0.501,0 -0.617,0.386 -0.539,0.772 L -2.93,-0.732 C -2.853,-0.347 -2.697,0 -2.119,0 Z" />
          </g>
          <g
             transform="translate(636.9912,255.127)"
             id="g3779">
            <path
               inkscape:connector-curvature="0"
               id="path3781"
               style="fill:#0994dc;fill-opacity:1;fill-rule:nonzero;stroke:none"
               d="m 0,0 c -4.24,0 -7.361,-2.737 -8.479,-8.942 l -0.887,-4.972 c -0.193,-1.079 -0.27,-2.042 -0.27,-2.93 0,-4.393 2.081,-6.01 5.589,-6.01 4.201,0 7.322,2.735 8.441,8.94 l 0.886,4.972 c 0.232,1.194 0.309,2.274 0.309,3.199 C 5.589,-1.542 3.508,0 0,0 m 8.826,-8.942 -0.887,-4.972 c -1.502,-8.518 -6.012,-12.102 -12.525,-12.102 -4.973,0 -8.634,2.814 -8.634,8.864 0,1.003 0.116,2.082 0.309,3.238 l 0.886,4.972 c 1.619,9.134 6.514,12.101 12.565,12.101 5.126,0 8.594,-3.045 8.594,-8.863 0,-1.003 -0.115,-2.082 -0.308,-3.238" />
          </g>
          <g
             transform="translate(669.8701,257.2842)"
             id="g3783">
            <path
               inkscape:connector-curvature="0"
               id="path3785"
               style="fill:#0994dc;fill-opacity:1;fill-rule:nonzero;stroke:none"
               d="m 0,0 c 0.076,0.386 0.23,0.732 0.809,0.732 h 2.043 c 0.384,0 0.577,-0.269 0.577,-0.578 L 3.429,0 -1.312,-26.786 c -0.115,-0.616 -0.307,-1.117 -1.31,-1.117 h -2.234 c -0.811,0 -0.964,0.231 -1.119,0.616 l -8.093,22.624 -0.077,0.116 c -0.039,0 -0.078,-0.039 -0.078,-0.116 l -3.969,-22.508 c -0.078,-0.386 -0.424,-0.732 -0.809,-0.732 h -2.236 c -0.27,0 -0.462,0.116 -0.386,0.463 l 4.779,27.094 c 0.116,0.616 0.425,1.078 1.311,1.078 h 1.888 c 1.08,0 1.234,-0.192 1.426,-0.771 l 8.017,-22.315 c 0.077,-0.231 0.116,-0.307 0.154,-0.307 0.039,0 0.077,0.076 0.116,0.307 z" />
          </g>
          <g
             transform="translate(420.7559,213.5948)"
             id="g3787">
            <path
               inkscape:connector-curvature="0"
               id="path3789"
               style="fill:#0994dc;fill-opacity:1;fill-rule:nonzero;stroke:none"
               d="M 0,0 C -0.039,0.423 -0.231,0.692 -0.617,0.692 -1.041,0.692 -1.31,0.423 -1.503,0 L -7.246,-12.681 H 1.272 Z M 5.28,-25.168 H 2.968 c -0.348,0 -0.501,0.27 -0.54,0.578 l -0.963,8.864 h -9.982 l -4.009,-8.864 c -0.116,-0.308 -0.346,-0.578 -0.808,-0.578 h -2.353 c -0.346,0 -0.539,0.192 -0.539,0.501 0,0.115 0,0.231 0.077,0.386 l 11.563,25.09 c 1.079,2.35 2.735,2.928 4.432,2.928 1.58,0 3.122,-0.539 3.391,-2.889 l 2.698,-25.129 v -0.155 c 0,-0.423 -0.193,-0.732 -0.655,-0.732" />
          </g>
          <g
             transform="translate(442.958,214.1729)"
             id="g3791">
            <path
               inkscape:connector-curvature="0"
               id="path3793"
               style="fill:#0994dc;fill-opacity:1;fill-rule:nonzero;stroke:none"
               d="m 0,0 c -1.233,0 -3.354,0 -4.278,-0.116 l -1.85,-10.561 c 0.964,-0.038 2.505,-0.077 4.239,-0.077 4.355,0 7.669,1.35 8.247,5.357 l 0.039,0.271 C 6.475,-4.664 6.513,-4.24 6.513,-3.855 6.513,-0.811 4.432,0 0,0 M 9.866,-5.126 9.828,-5.397 C 9.172,-9.906 6.321,-12.449 2.39,-13.182 l 5.009,-11.832 c 0.039,-0.077 0.078,-0.193 0.078,-0.346 0,-0.232 -0.155,-0.386 -0.424,-0.386 H 4.394 c -0.462,0 -0.579,0 -0.771,0.501 l -4.856,11.485 h -1.195 c -1.272,0 -3.276,0.077 -4.24,0.115 l -1.966,-11.33 c -0.076,-0.385 -0.269,-0.771 -0.847,-0.771 h -2.082 c -0.385,0 -0.617,0.231 -0.539,0.771 l 4.741,26.978 c 0.115,0.54 0.385,0.77 1.078,0.849 1.696,0.192 4.972,0.307 6.822,0.307 5.55,0 9.442,-2.081 9.442,-6.859 0,-0.463 -0.038,-0.926 -0.115,-1.426" />
          </g>
          <g
             transform="translate(475.9141,216.793)"
             id="g3795">
            <path
               inkscape:connector-curvature="0"
               id="path3797"
               style="fill:#0994dc;fill-opacity:1;fill-rule:nonzero;stroke:none"
               d="M 0,0 C 0.346,-0.039 0.615,-0.193 0.539,-0.578 L 0.192,-2.506 c -0.039,-0.386 -0.27,-0.423 -0.694,-0.386 -2.235,0.194 -4.009,0.272 -7.284,0.272 -3.43,0 -7.207,-1.851 -8.402,-8.865 l -0.886,-5.164 c -0.193,-1.157 -0.309,-2.16 -0.309,-3.045 0,-4.317 2.236,-5.82 5.203,-5.82 2.351,0 3.97,0.154 4.895,0.231 l 1.966,11.022 c 0.077,0.425 0.385,0.772 0.808,0.772 h 2.082 c 0.385,0 0.617,-0.309 0.617,-0.656 v -0.116 L -4.125,-27.21 c -0.077,-0.424 -0.424,-0.77 -0.848,-0.848 -1.927,-0.308 -4.124,-0.578 -7.746,-0.578 -4.086,0 -8.133,2.62 -8.133,9.057 0,0.887 0.079,1.889 0.271,2.93 l 0.886,5.164 C -18,-1.658 -12.411,0.539 -7.246,0.539 -3.662,0.539 -1.427,0.231 0,0" />
          </g>
          <g
             transform="translate(484.9336,210.1641)"
             id="g3799">
            <path
               inkscape:connector-curvature="0"
               id="path3801"
               style="fill:#0994dc;fill-opacity:1;fill-rule:nonzero;stroke:none"
               d="m 0,0 -0.925,-5.357 h 11.832 c 0.424,0 0.694,-0.194 0.617,-0.772 l -0.232,-1.464 c -0.076,-0.425 -0.27,-0.77 -0.925,-0.77 H -1.464 l -1.119,-6.476 c -0.114,-0.616 -0.192,-1.117 -0.192,-1.58 0,-1.734 0.963,-2.427 4.201,-2.427 h 7.323 c 0.385,0 0.539,-0.078 0.462,-0.464 l -0.347,-1.888 c -0.039,-0.231 -0.077,-0.462 -0.462,-0.539 -1.118,-0.117 -5.281,-0.27 -7.554,-0.27 -4.395,0 -7.091,1.812 -7.091,5.55 0,0.501 0.038,1.04 0.153,1.618 L -3.508,0 c 1.003,5.665 4.086,7.168 9.482,7.168 4.354,0 6.435,-0.153 7.476,-0.347 0.27,-0.039 0.386,-0.153 0.309,-0.539 L 13.412,4.471 C 13.373,4.085 13.181,4.009 12.911,4.009 H 5.473 C 1.387,4.009 0.501,2.929 0,0" />
          </g>
          <g
             transform="translate(520.5488,216.3301)"
             id="g3803">
            <path
               inkscape:connector-curvature="0"
               id="path3805"
               style="fill:#0994dc;fill-opacity:1;fill-rule:nonzero;stroke:none"
               d="m 0,0 c 0.077,0.386 0.23,0.732 0.809,0.732 h 2.043 c 0.384,0 0.577,-0.269 0.577,-0.578 L 3.429,0 -1.312,-26.786 c -0.114,-0.616 -0.307,-1.117 -1.309,-1.117 h -2.235 c -0.81,0 -0.964,0.231 -1.118,0.616 l -8.093,22.624 -0.078,0.116 c -0.039,0 -0.077,-0.039 -0.077,-0.116 l -3.97,-22.508 c -0.077,-0.386 -0.423,-0.732 -0.809,-0.732 h -2.236 c -0.27,0 -0.462,0.116 -0.384,0.463 l 4.778,27.094 c 0.115,0.616 0.424,1.078 1.31,1.078 h 1.888 c 1.081,0 1.234,-0.192 1.426,-0.771 l 8.018,-22.315 c 0.077,-0.231 0.115,-0.307 0.153,-0.307 0.039,0 0.077,0.076 0.116,0.307 z" />
          </g>
          <g
             transform="translate(534.0391,189.1983)"
             id="g3807">
            <path
               inkscape:connector-curvature="0"
               id="path3809"
               style="fill:#0994dc;fill-opacity:1;fill-rule:nonzero;stroke:none"
               d="m 0,0 c -0.076,-0.425 -0.424,-0.771 -0.848,-0.771 h -2.12 c -0.423,0 -0.616,0.385 -0.539,0.771 l 4.355,24.858 h -7.516 c -0.423,0 -0.731,0.117 -0.654,0.617 l 0.308,1.695 c 0.116,0.54 0.462,0.694 0.886,0.694 H 12.41 c 0.425,0 0.732,-0.154 0.617,-0.694 L 12.719,25.475 C 12.642,25.089 12.487,24.858 11.871,24.858 H 4.355 Z" />
          </g>
          <g
             transform="translate(554.7383,217.0625)"
             id="g3811">
            <path
               inkscape:connector-curvature="0"
               id="path3813"
               style="fill:#0994dc;fill-opacity:1;fill-rule:nonzero;stroke:none"
               d="M 0,0 C 0.501,0 0.655,-0.23 0.578,-0.732 L -4.2,-27.864 c -0.078,-0.54 -0.309,-0.772 -0.848,-0.772 h -2.12 c -0.502,0 -0.617,0.386 -0.54,0.772 l 4.779,27.132 C -2.853,-0.347 -2.697,0 -2.119,0 Z" />
          </g>
          <g
             transform="translate(578.4805,216.3301)"
             id="g3815">
            <path
               inkscape:connector-curvature="0"
               id="path3817"
               style="fill:#0994dc;fill-opacity:1;fill-rule:nonzero;stroke:none"
               d="M 0,0 C 0.077,0.386 0.23,0.732 0.809,0.732 H 2.853 C 3.236,0.732 3.43,0.463 3.43,0.154 V 0 l -4.742,-26.786 c -0.114,-0.616 -0.307,-1.117 -1.309,-1.117 h -2.235 c -0.81,0 -0.964,0.231 -1.118,0.616 l -8.093,22.624 -0.078,0.116 c -0.039,0 -0.078,-0.039 -0.078,-0.116 l -3.969,-22.508 c -0.077,-0.386 -0.423,-0.732 -0.809,-0.732 h -2.236 c -0.27,0 -0.462,0.116 -0.385,0.463 l 4.779,27.094 c 0.116,0.616 0.425,1.078 1.311,1.078 h 1.887 c 1.081,0 1.234,-0.192 1.427,-0.771 l 8.017,-22.315 c 0.077,-0.231 0.116,-0.307 0.153,-0.307 0.039,0 0.077,0.076 0.116,0.307 z" />
          </g>
          <g
             transform="translate(597.4443,213.5948)"
             id="g3819">
            <path
               inkscape:connector-curvature="0"
               id="path3821"
               style="fill:#0994dc;fill-opacity:1;fill-rule:nonzero;stroke:none"
               d="M 0,0 C -0.039,0.423 -0.231,0.692 -0.617,0.692 -1.04,0.692 -1.31,0.423 -1.503,0 L -7.246,-12.681 H 1.272 Z M 5.28,-25.168 H 2.968 c -0.347,0 -0.501,0.27 -0.54,0.578 l -0.963,8.864 h -9.982 l -4.008,-8.864 c -0.117,-0.308 -0.347,-0.578 -0.809,-0.578 h -2.353 c -0.345,0 -0.539,0.192 -0.539,0.501 0,0.115 0,0.231 0.078,0.386 l 11.561,25.09 c 1.08,2.35 2.736,2.928 4.434,2.928 1.58,0 3.121,-0.539 3.391,-2.889 l 2.697,-25.129 v -0.155 c 0,-0.423 -0.193,-0.732 -0.655,-0.732" />
          </g>
          <g
             transform="translate(630.2852,214.3262)"
             id="g3823">
            <path
               inkscape:connector-curvature="0"
               id="path3825"
               style="fill:#0994dc;fill-opacity:1;fill-rule:nonzero;stroke:none"
               d="m 0,0 c -1.812,0 -3.006,-0.039 -4.278,-0.116 l -4.047,-22.97 c 1.233,-0.077 2.467,-0.077 4.278,-0.077 4.509,0 8.633,2.312 9.751,8.98 l 0.886,5.204 c 0.192,1.04 0.27,1.964 0.27,2.774 C 6.86,-1.426 3.93,0 0,0 m 10.097,-8.979 -0.886,-5.204 c -1.465,-8.479 -6.398,-11.986 -13.798,-11.986 -2.929,0 -5.819,0.192 -6.937,0.386 -0.617,0.115 -0.733,0.423 -0.656,0.964 l 4.664,26.477 c 0.116,0.539 0.462,0.886 0.963,0.962 1.157,0.193 4.163,0.386 7.092,0.386 5.897,0 9.828,-2.929 9.828,-9.019 0,-0.924 -0.078,-1.888 -0.27,-2.966" />
          </g>
          <g
             transform="translate(649.9434,210.1641)"
             id="g3827">
            <path
               inkscape:connector-curvature="0"
               id="path3829"
               style="fill:#0994dc;fill-opacity:1;fill-rule:nonzero;stroke:none"
               d="m 0,0 -0.925,-5.357 h 11.831 c 0.425,0 0.695,-0.194 0.617,-0.772 l -0.231,-1.464 c -0.077,-0.425 -0.27,-0.77 -0.925,-0.77 H -1.464 l -1.119,-6.476 c -0.114,-0.616 -0.192,-1.117 -0.192,-1.58 0,-1.734 0.963,-2.427 4.201,-2.427 h 7.323 c 0.385,0 0.539,-0.078 0.462,-0.464 l -0.347,-1.888 c -0.039,-0.231 -0.077,-0.462 -0.462,-0.539 -1.119,-0.117 -5.281,-0.27 -7.554,-0.27 -4.394,0 -7.092,1.812 -7.092,5.55 0,0.501 0.039,1.04 0.154,1.618 L -3.508,0 c 1.003,5.665 4.086,7.168 9.482,7.168 4.354,0 6.435,-0.153 7.476,-0.347 0.271,-0.039 0.386,-0.153 0.309,-0.539 L 13.412,4.471 C 13.373,4.085 13.181,4.009 12.911,4.009 H 5.472 C 1.388,4.009 0.501,2.929 0,0" />
          </g>
          <g
             transform="translate(453.4033,176.1084)"
             id="g3831">
            <path
               inkscape:connector-curvature="0"
               id="path3833"
               style="fill:#0994dc;fill-opacity:1;fill-rule:nonzero;stroke:none"
               d="m 0,0 c 0.501,0 0.733,-0.27 0.463,-0.887 l -11.524,-25.09 c -1.117,-2.427 -2.967,-2.928 -4.431,-2.928 -1.427,0 -3.161,0.501 -3.431,2.928 l -2.698,25.09 C -21.698,-0.116 -21.312,0 -20.812,0 h 2.159 c 0.501,0 0.539,-0.27 0.578,-0.578 l 2.389,-24.551 c 0.039,-0.539 0.194,-0.808 0.617,-0.808 0.385,0 0.655,0.269 0.886,0.808 L -3.122,-0.578 C -2.967,-0.27 -2.89,0 -2.351,0 Z" />
          </g>
          <g
             transform="translate(477.2627,176.1084)"
             id="g3835">
            <path
               inkscape:connector-curvature="0"
               id="path3837"
               style="fill:#0994dc;fill-opacity:1;fill-rule:nonzero;stroke:none"
               d="M 0,0 C 0.425,0 0.732,-0.154 0.617,-0.732 L -2.467,-18.23 c -1.348,-7.592 -5.165,-10.675 -11.755,-10.675 -5.087,0 -8.247,2.62 -8.247,7.862 0,0.848 0.077,1.812 0.27,2.813 l 3.084,17.498 C -19.039,-0.347 -18.846,0 -18.268,0 h 2.081 c 0.423,0 0.732,-0.192 0.617,-0.732 l -3.083,-17.498 c -0.193,-1.041 -0.309,-1.926 -0.309,-2.774 0,-3.2 1.503,-4.895 5.28,-4.895 4.78,0 6.784,2.698 7.669,7.669 l 3.084,17.498 C -2.852,-0.347 -2.698,0 -2.081,0 Z" />
          </g>
          <g
             transform="translate(486.168,169.21)"
             id="g3839">
            <path
               inkscape:connector-curvature="0"
               id="path3841"
               style="fill:#0994dc;fill-opacity:1;fill-rule:nonzero;stroke:none"
               d="m 0,0 -0.925,-5.357 h 11.832 c 0.424,0 0.694,-0.194 0.617,-0.772 l -0.232,-1.464 c -0.076,-0.425 -0.27,-0.77 -0.925,-0.77 H -1.464 l -1.119,-6.476 c -0.114,-0.616 -0.192,-1.117 -0.192,-1.58 0,-1.734 0.963,-2.427 4.201,-2.427 h 7.323 c 0.385,0 0.539,-0.078 0.462,-0.464 l -0.347,-1.888 c -0.039,-0.231 -0.077,-0.462 -0.462,-0.539 -1.118,-0.117 -5.281,-0.27 -7.554,-0.27 -4.394,0 -7.091,1.812 -7.091,5.55 0,0.501 0.039,1.04 0.153,1.618 L -3.508,0 c 1.003,5.665 4.086,7.168 9.482,7.168 4.354,0 6.436,-0.153 7.476,-0.347 0.27,-0.039 0.386,-0.153 0.309,-0.539 L 13.412,4.471 C 13.373,4.085 13.181,4.009 12.911,4.009 H 5.473 C 1.387,4.009 0.501,2.929 0,0" />
          </g>
          <g
             transform="translate(516.5781,149.7852)"
             id="g3843">
            <path
               inkscape:connector-curvature="0"
               id="path3845"
               style="fill:#0994dc;fill-opacity:1;fill-rule:nonzero;stroke:none"
               d="m 0,0 -0.27,-1.696 c -0.038,-0.347 -0.077,-0.462 -0.5,-0.539 -1.041,-0.155 -3.931,-0.347 -7.554,-0.347 -3.817,0 -7.053,0.964 -7.053,5.473 0,0.655 0.038,1.348 0.193,2.158 l 3.584,20.503 c 0.077,0.425 0.231,0.771 0.925,0.771 h 1.965 c 0.462,0 0.694,-0.386 0.617,-0.771 L -11.755,4.586 c -0.114,-0.616 -0.192,-1.233 -0.192,-1.695 0,-1.735 0.963,-2.312 4.201,-2.312 H -0.5 C -0.192,0.579 0,0.386 0,0.115 Z" />
          </g>
          <g
             transform="translate(532.46,173.2188)"
             id="g3847">
            <path
               inkscape:connector-curvature="0"
               id="path3849"
               style="fill:#0994dc;fill-opacity:1;fill-rule:nonzero;stroke:none"
               d="m 0,0 c -4.24,0 -7.362,-2.737 -8.479,-8.942 l -0.887,-4.972 c -0.194,-1.079 -0.271,-2.042 -0.271,-2.93 0,-4.393 2.082,-6.01 5.589,-6.01 4.201,0 7.323,2.735 8.441,8.94 l 0.886,4.972 C 5.51,-7.748 5.588,-6.668 5.588,-5.743 5.588,-1.542 3.507,0 0,0 m 8.825,-8.942 -0.887,-4.972 c -1.502,-8.518 -6.012,-12.102 -12.525,-12.102 -4.973,0 -8.634,2.814 -8.634,8.864 0,1.003 0.117,2.082 0.309,3.238 l 0.886,4.972 c 1.619,9.134 6.514,12.101 12.565,12.101 5.126,0 8.594,-3.045 8.594,-8.863 0,-1.003 -0.114,-2.082 -0.308,-3.238" />
          </g>
          <g
             transform="translate(570.6562,149.7852)"
             id="g3851">
            <path
               inkscape:connector-curvature="0"
               id="path3853"
               style="fill:#0994dc;fill-opacity:1;fill-rule:nonzero;stroke:none"
               d="m 0,0 -0.27,-1.696 c -0.038,-0.347 -0.077,-0.462 -0.5,-0.539 -1.041,-0.155 -3.931,-0.347 -7.554,-0.347 -3.817,0 -7.053,0.964 -7.053,5.473 0,0.655 0.038,1.348 0.193,2.158 l 3.584,20.503 c 0.077,0.425 0.231,0.771 0.925,0.771 h 1.965 c 0.462,0 0.694,-0.386 0.617,-0.771 L -11.755,4.586 c -0.114,-0.616 -0.192,-1.233 -0.192,-1.695 0,-1.735 0.963,-2.312 4.201,-2.312 H -0.5 C -0.192,0.579 0,0.386 0,0.115 Z" />
          </g>
          <g
             transform="translate(582.2197,176.1084)"
             id="g3855">
            <path
               inkscape:connector-curvature="0"
               id="path3857"
               style="fill:#0994dc;fill-opacity:1;fill-rule:nonzero;stroke:none"
               d="M 0,0 C 0.501,0 0.654,-0.23 0.578,-0.732 L -4.2,-27.864 c -0.078,-0.54 -0.309,-0.772 -0.848,-0.772 h -2.12 c -0.502,0 -0.617,0.386 -0.54,0.772 L -2.93,-0.732 C -2.853,-0.347 -2.697,0 -2.119,0 Z" />
          </g>
          <g
             transform="translate(603.2256,169.9415)"
             id="g3859">
            <path
               inkscape:connector-curvature="0"
               id="path3861"
               style="fill:#0994dc;fill-opacity:1;fill-rule:nonzero;stroke:none"
               d="m 0,0 c 0,2.853 -2.774,3.47 -7.015,3.47 -1.309,0 -2.773,-0.078 -3.853,-0.116 l -1.695,-9.558 h 5.934 c 4.471,0 6.013,2.158 6.476,4.586 C 0,-0.809 0,-0.615 0,-0.423 Z m -7.091,-9.019 h -5.935 l -1.888,-10.597 c 1.27,-0.039 2.62,-0.155 3.97,-0.155 4.778,0 7.938,1.042 8.671,5.204 0.192,1.04 0.192,1.386 0.192,1.772 0,2.081 -1.155,3.776 -5.01,3.776 m 10.445,7.401 c -0.617,-3.237 -2.39,-5.049 -5.165,-6.051 2.082,-0.848 3.237,-2.813 3.237,-5.087 0,-0.386 0,-0.771 -0.193,-1.811 -1.155,-6.552 -6.128,-8.171 -12.679,-8.171 -2.543,0 -4.818,0.116 -6.243,0.346 -0.733,0.116 -1.041,0.386 -1.041,1.003 0,0.115 0,0.27 0.038,0.423 l 4.509,25.669 c 0.155,0.886 0.695,1.31 1.503,1.426 1.311,0.154 3.661,0.308 6.167,0.308 5.627,0 10.02,-1.657 10.02,-6.09 v -0.693 c 0,-0.232 0,-0.425 -0.153,-1.272" />
          </g>
          <g
             transform="translate(620.2637,173.2188)"
             id="g3863">
            <path
               inkscape:connector-curvature="0"
               id="path3865"
               style="fill:#0994dc;fill-opacity:1;fill-rule:nonzero;stroke:none"
               d="m 0,0 c -1.233,0 -3.354,0 -4.278,-0.116 l -1.85,-10.561 c 0.964,-0.038 2.505,-0.077 4.239,-0.077 4.356,0 7.67,1.35 8.248,5.357 l 0.039,0.271 C 6.475,-4.664 6.513,-4.24 6.513,-3.855 6.513,-0.811 4.432,0 0,0 M 9.866,-5.126 9.828,-5.397 C 9.172,-9.906 6.321,-12.449 2.39,-13.182 l 5.009,-11.832 c 0.039,-0.077 0.078,-0.193 0.078,-0.346 0,-0.232 -0.154,-0.386 -0.424,-0.386 H 4.394 c -0.462,0 -0.579,0 -0.771,0.501 l -4.856,11.485 h -1.195 c -1.272,0 -3.276,0.077 -4.24,0.115 l -1.965,-11.33 c -0.077,-0.385 -0.27,-0.771 -0.848,-0.771 h -2.082 c -0.384,0 -0.617,0.231 -0.539,0.771 l 4.741,26.978 c 0.115,0.54 0.385,0.77 1.079,0.849 1.695,0.192 4.971,0.307 6.821,0.307 5.551,0 9.443,-2.081 9.443,-6.859 0,-0.463 -0.039,-0.926 -0.116,-1.426" />
          </g>
          <g
             transform="translate(639.4199,169.21)"
             id="g3867">
            <path
               inkscape:connector-curvature="0"
               id="path3869"
               style="fill:#0994dc;fill-opacity:1;fill-rule:nonzero;stroke:none"
               d="m 0,0 -0.924,-5.357 h 11.831 c 0.425,0 0.695,-0.194 0.617,-0.772 l -0.231,-1.464 c -0.077,-0.425 -0.27,-0.77 -0.925,-0.77 H -1.464 l -1.118,-6.476 c -0.115,-0.616 -0.192,-1.117 -0.192,-1.58 0,-1.734 0.962,-2.427 4.201,-2.427 h 7.322 c 0.386,0 0.54,-0.078 0.463,-0.464 l -0.347,-1.888 c -0.039,-0.231 -0.078,-0.462 -0.462,-0.539 -1.119,-0.117 -5.281,-0.27 -7.554,-0.27 -4.395,0 -7.092,1.812 -7.092,5.55 0,0.501 0.039,1.04 0.154,1.618 L -3.507,0 c 1.003,5.665 4.086,7.168 9.482,7.168 4.354,0 6.435,-0.153 7.476,-0.347 0.27,-0.039 0.385,-0.153 0.309,-0.539 L 13.413,4.471 C 13.374,4.085 13.182,4.009 12.912,4.009 H 5.473 C 1.388,4.009 0.502,2.929 0,0" />
          </g>
          <g
             transform="translate(285.6997,315.4619)"
             id="g3871">
            <path
               inkscape:connector-curvature="0"
               id="path3873"
               style="fill:#0994dc;fill-opacity:1;fill-rule:nonzero;stroke:none"
               d="m 0,0 39.131,-49.122 c 0.137,-0.151 0.286,-0.304 0.46,-0.425 1.246,-0.873 2.96,-0.574 3.829,0.667 0.281,0.401 0.436,0.84 0.479,1.296 L 55.219,70.51 c 0.13,1.863 -0.731,3.804 -2.377,4.957 -1.646,1.152 -3.765,1.297 -5.471,0.538 l -107.1,-51.028 c -0.414,-0.196 -0.773,-0.492 -1.054,-0.893 -0.869,-1.241 -0.564,-2.954 0.682,-3.827 0.175,-0.122 0.369,-0.21 0.557,-0.286 z m -73.67,29.735 c 22.398,21.1 49.664,38.092 80.869,49.075 56.47,19.875 115.218,16.375 164.87,-5.334 l 2.372,13.944 C 127.178,128.065 58.185,142.648 -7.174,119.644 -41.645,107.512 -70.347,86.59 -91.456,60.539 c 5.056,-10.701 11,-21.001 17.786,-30.804 m 183.882,-48.723 c 6.729,35.919 2.961,71.238 -9.045,102.544 C 89.372,84.529 77.479,84.53 65.597,83.554 72.671,53.607 73.753,21.498 67.663,-11.018 56.64,-69.859 24.234,-118.987 -19.392,-151.132 l 10.891,-9.026 c 58.83,20.607 105.956,73.066 118.713,141.17 M 24.79,-94.77 c -33.116,5.255 -65.587,19.652 -93.33,43.439 -52.601,45.1 -74.469,112.142 -62.9,173.394 l 13.262,4.918 C -112.153,73.128 -85.81,20.5 -40.362,-18.467 -15.249,-40 13.1,-55.117 42.573,-63.964 37.477,-74.742 31.529,-85.041 24.79,-94.77" />
          </g>
        </g>
      </g>
    </g>
  </g>
</svg>
